<svg width="227" height="116" viewBox="0 0 227 116" fill="none" xmlns="http://www.w3.org/2000/svg">
<path d="M105.808 34.4129H112.376V42.0123C112.376 43.4236 112.159 44.7806 111.725 46.0834C111.327 47.3499 110.675 48.4898 109.771 49.5031C108.902 50.4801 107.78 51.2582 106.405 51.8372C105.066 52.4162 103.456 52.7057 101.574 52.7057C99.62 52.7057 97.9554 52.4162 96.5803 51.8372C95.2051 51.2582 94.0652 50.4801 93.1606 49.5031C92.2921 48.526 91.6588 47.3861 91.2607 46.0834C90.8627 44.7806 90.6636 43.4055 90.6636 41.958V18.0743H97.6116V25.2937H112.376V30.2876H97.6116V41.2523C97.6116 42.9531 97.9192 44.274 98.5344 45.2149C99.1858 46.1195 100.235 46.5719 101.683 46.5719C103.094 46.5719 104.125 46.1195 104.777 45.2149C105.464 44.3102 105.808 43.0255 105.808 41.3609V34.4129ZM133.715 52V48.2546C131.906 51.222 129.138 52.7057 125.41 52.7057C124.071 52.7057 122.841 52.4704 121.719 52C120.634 51.5296 119.693 50.8601 118.897 49.9916C118.1 49.1231 117.467 48.0918 116.997 46.8976C116.563 45.7034 116.345 44.3645 116.345 42.8808V25.2937H123.402V41.7952C123.402 45.1244 124.904 46.789 127.907 46.789C129.717 46.789 131.074 46.2281 131.978 45.1063C132.919 43.9483 133.39 42.4827 133.39 40.7095V25.2937H140.392V52H133.715ZM157.382 46.6805C159.119 46.6805 160.548 46.0291 161.67 44.7263C162.828 43.3874 163.407 41.578 163.407 39.2982C163.407 33.5806 161.399 30.7218 157.382 30.7218C153.365 30.7218 151.357 33.4359 151.357 38.864C151.357 41.2523 151.918 43.1522 153.039 44.5635C154.197 45.9748 155.645 46.6805 157.382 46.6805ZM163.19 48.4174C162.683 49.6116 161.761 50.5525 160.422 51.2401C159.119 51.8914 157.599 52.2171 155.862 52.2171C153.655 52.2171 151.791 51.8372 150.271 51.0772C148.787 50.2811 147.575 49.2498 146.634 47.9832C145.73 46.7166 145.06 45.251 144.626 43.5864C144.228 41.9218 144.029 40.221 144.029 38.484C144.029 36.4213 144.336 34.5396 144.952 32.8388C145.567 31.1018 146.399 29.6362 147.448 28.442C148.498 27.2116 149.728 26.2708 151.14 25.6194C152.551 24.9318 154.071 24.588 155.699 24.588C159.028 24.588 161.525 25.927 163.19 28.6048V25.2937H170.247V52.2714C170.247 54.2979 169.903 56.0711 169.215 57.591C168.528 59.147 167.587 60.4317 166.393 61.4449C165.198 62.4943 163.787 63.2905 162.159 63.8333C160.53 64.3761 158.793 64.6475 156.948 64.6475C155.102 64.6475 153.383 64.3761 151.791 63.8333C150.199 63.3267 148.824 62.5848 147.666 61.6078C146.544 60.6669 145.657 59.5089 145.006 58.1338C144.354 56.7586 144.029 55.2026 144.029 53.4656H150.597C150.597 55.094 151.121 56.3425 152.171 57.211C153.257 58.1157 154.686 58.568 156.459 58.568C158.341 58.568 159.933 58.0433 161.236 56.9939C162.539 55.9806 163.19 54.5874 163.19 52.8142V48.4174ZM190.671 38.9183C190.309 39.2801 189.784 39.5696 189.097 39.7868C188.409 40.0039 187.414 40.2391 186.111 40.4924C184.085 40.8905 182.692 41.3971 181.932 42.0123C181.172 42.6275 180.792 43.5141 180.792 44.6721C180.792 46.6624 181.932 47.6575 184.212 47.6575C185.116 47.6575 185.949 47.5128 186.709 47.2233C187.505 46.8976 188.174 46.4814 188.717 45.9748C189.296 45.432 189.748 44.8168 190.074 44.1292C190.436 43.4055 190.617 42.6456 190.617 41.8494L190.671 38.9183ZM191.16 52C190.942 51.3124 190.798 50.5163 190.725 49.6116C189.893 50.5525 188.789 51.3124 187.414 51.8914C186.039 52.4342 184.447 52.7057 182.637 52.7057C179.562 52.7057 177.3 52.0362 175.852 50.6973C174.441 49.3221 173.735 47.5489 173.735 45.3777C173.735 43.4598 174.043 41.9399 174.658 40.8181C175.273 39.6601 176.124 38.7554 177.209 38.104C178.295 37.4527 179.58 36.9822 181.063 36.6927C182.583 36.367 184.23 36.0775 186.003 35.8242C187.776 35.5709 188.97 35.2452 189.585 34.8472C190.201 34.4129 190.508 33.7254 190.508 32.7845C190.508 31.916 190.092 31.2465 189.26 30.7761C188.464 30.2695 187.378 30.0162 186.003 30.0162C184.374 30.0162 183.198 30.378 182.475 31.1018C181.787 31.8255 181.353 32.7845 181.172 33.9787H174.604C174.64 32.6036 174.857 31.337 175.255 30.179C175.689 29.021 176.359 28.0258 177.264 27.1935C178.204 26.3612 179.417 25.7279 180.9 25.2937C182.384 24.8233 184.194 24.588 186.329 24.588C188.427 24.588 190.201 24.8233 191.648 25.2937C193.132 25.7641 194.308 26.4517 195.176 27.3564C196.081 28.2249 196.732 29.3286 197.131 30.6675C197.529 31.9703 197.728 33.454 197.728 35.1186V52H191.16ZM217.992 33.3816C217.811 32.0788 217.341 31.1741 216.581 30.6675C215.821 30.1247 214.627 29.8533 212.998 29.8533C211.659 29.8533 210.628 30.0342 209.904 30.3961C209.181 30.7218 208.819 31.2827 208.819 32.0788C208.819 32.875 209.181 33.4901 209.904 33.9244C210.628 34.3225 211.714 34.7205 213.161 35.1186C214.681 35.5528 216.129 35.9509 217.504 36.3128C218.879 36.6384 220.091 37.0003 221.141 37.3984C222.552 37.9774 223.637 38.7735 224.397 39.7868C225.157 40.7638 225.537 42.1208 225.537 43.8578C225.537 46.6443 224.542 48.8155 222.552 50.3716C220.598 51.9276 217.703 52.7057 213.867 52.7057C209.742 52.7057 206.575 51.8372 204.368 50.1002C202.196 48.3632 201.075 46.1376 201.002 43.4236H208.276C208.276 44.6901 208.764 45.6672 209.742 46.3548C210.719 47.0423 212.076 47.3861 213.813 47.3861C215.079 47.3861 216.183 47.1871 217.124 46.789C218.065 46.3548 218.535 45.631 218.535 44.6178C218.535 43.6769 218.101 43.0074 217.232 42.6094C216.4 42.2113 215.405 41.8675 214.247 41.578C212.003 41.0352 210.194 40.5467 208.819 40.1124C207.444 39.6782 206.286 39.1535 205.345 38.5383C204.078 37.7422 203.192 36.8375 202.685 35.8242C202.215 34.811 201.979 33.7073 201.979 32.5131C201.979 31.3913 202.178 30.3418 202.576 29.3648C202.974 28.3877 203.626 27.5554 204.531 26.8678C205.435 26.1441 206.593 25.5832 208.005 25.1851C209.452 24.7871 211.189 24.588 213.216 24.588C217.088 24.588 219.928 25.3299 221.738 26.8136C223.583 28.2973 224.596 30.4866 224.777 33.3816H217.992Z" fill="black"/>
<path d="M107.057 102.404L101.194 90.4078L97.7745 93.9361V102.404H90.6636V65.927H97.7745V85.8482L106.568 75.6976H115.199L106.242 85.5225L114.982 102.404H107.057ZM132.766 86.4453C132.73 85.4682 132.549 84.6178 132.223 83.8941C131.934 83.1341 131.536 82.519 131.029 82.0485C130.523 81.5419 129.944 81.18 129.292 80.9629C128.641 80.7096 127.971 80.5829 127.284 80.5829C125.873 80.5829 124.642 81.1076 123.593 82.1571C122.58 83.1703 122.001 84.5997 121.856 86.4453H132.766ZM121.639 90.8963C121.747 92.9228 122.326 94.5332 123.376 95.7274C124.461 96.9215 125.873 97.5186 127.61 97.5186C128.768 97.5186 129.781 97.2653 130.649 96.7587C131.554 96.2159 132.133 95.474 132.386 94.5332H139.66C138.828 97.2834 137.38 99.4004 135.317 100.884C133.255 102.368 130.794 103.11 127.935 103.11C119.033 103.11 114.582 98.2605 114.582 88.5622C114.582 86.4996 114.872 84.6359 115.451 82.9713C116.03 81.3067 116.862 79.8773 117.948 78.6831C119.069 77.4889 120.426 76.5842 122.019 75.969C123.611 75.3177 125.438 74.992 127.501 74.992C131.626 74.992 134.738 76.3128 136.837 78.9545C138.972 81.5962 140.04 85.5768 140.04 90.8963H121.639ZM143.564 102.404V65.927H150.621V102.404H143.564ZM170.899 89.3222C170.537 89.6841 170.012 89.9736 169.325 90.1907C168.637 90.4078 167.642 90.643 166.339 90.8963C164.313 91.2944 162.919 91.801 162.159 92.4162C161.4 93.0314 161.02 93.918 161.02 95.076C161.02 97.0663 162.159 98.0614 164.439 98.0614C165.344 98.0614 166.176 97.9167 166.936 97.6272C167.732 97.3015 168.402 96.8854 168.945 96.3787C169.524 95.8359 169.976 95.2207 170.302 94.5332C170.664 93.8094 170.844 93.0495 170.844 92.2534L170.899 89.3222ZM171.387 102.404C171.17 101.716 171.025 100.92 170.953 100.016C170.121 100.956 169.017 101.716 167.642 102.295C166.267 102.838 164.675 103.11 162.865 103.11C159.789 103.11 157.527 102.44 156.08 101.101C154.669 99.7261 153.963 97.9529 153.963 95.7816C153.963 93.8637 154.271 92.3438 154.886 91.222C155.501 90.064 156.351 89.1593 157.437 88.508C158.523 87.8566 159.807 87.3862 161.291 87.0967C162.811 86.771 164.457 86.4815 166.231 86.2282C168.004 85.9748 169.198 85.6492 169.813 85.2511C170.428 84.8169 170.736 84.1293 170.736 83.1884C170.736 82.3199 170.32 81.6505 169.487 81.18C168.691 80.6734 167.606 80.4201 166.231 80.4201C164.602 80.4201 163.426 80.782 162.702 81.5057C162.015 82.2295 161.58 83.1884 161.4 84.3826H154.832C154.868 83.0075 155.085 81.7409 155.483 80.5829C155.917 79.4249 156.587 78.4298 157.491 77.5975C158.432 76.7652 159.644 76.1319 161.128 75.6976C162.612 75.2272 164.421 74.992 166.556 74.992C168.655 74.992 170.428 75.2272 171.876 75.6976C173.359 76.1681 174.536 76.8556 175.404 77.7603C176.309 78.6288 176.96 79.7325 177.358 81.0715C177.756 82.3742 177.955 83.8579 177.955 85.5225V102.404H171.387ZM182.153 102.404V75.6976H188.775V78.9002C189.354 77.9955 189.951 77.2899 190.566 76.7832C191.218 76.2766 191.869 75.8967 192.52 75.6433C193.208 75.3538 193.896 75.1729 194.583 75.1005C195.271 75.0282 195.976 74.992 196.7 74.992H197.623V82.2114C196.971 82.1028 196.32 82.0485 195.669 82.0485C191.362 82.0485 189.209 84.2017 189.209 88.508V102.404H182.153Z" fill="black"/>
<path d="M199.802 102.404V99.2634H203.036V102.404H199.802ZM204.746 102.404V90.9584H207.77V102.404H204.746ZM204.746 89.5858V86.771H207.77V89.5858H204.746ZM215.247 100.171C217.092 100.171 218.015 99.0075 218.015 96.6812C218.015 94.3703 217.092 93.2149 215.247 93.2149C213.401 93.2149 212.478 94.3703 212.478 96.6812C212.478 99.0075 213.401 100.171 215.247 100.171ZM215.247 102.706C214.316 102.706 213.486 102.559 212.758 102.264C212.029 101.97 211.408 101.559 210.896 101.031C210.4 100.504 210.02 99.8682 209.757 99.1238C209.493 98.3794 209.361 97.5652 209.361 96.6812C209.361 95.7816 209.493 94.9597 209.757 94.2152C210.036 93.4708 210.431 92.8349 210.943 92.3076C211.455 91.7803 212.067 91.3771 212.781 91.098C213.51 90.8033 214.332 90.6559 215.247 90.6559C216.146 90.6559 216.953 90.8033 217.666 91.098C218.379 91.3771 218.984 91.7803 219.481 92.3076C219.992 92.8194 220.38 93.4475 220.644 94.192C220.923 94.9364 221.063 95.7661 221.063 96.6812C221.063 97.5962 220.923 98.4259 220.644 99.1703C220.38 99.8992 219.992 100.527 219.481 101.055C218.984 101.582 218.372 101.993 217.643 102.288C216.929 102.567 216.131 102.706 215.247 102.706Z" fill="#F3722C"/>
<path d="M65.3984 20.3433C66.2243 20.3433 67.0166 20.6714 67.6006 21.2554C68.1846 21.8394 68.5127 22.6316 68.5127 23.4575V85.7417C68.5127 86.5676 68.1846 87.3598 67.6006 87.9438C67.0166 88.5279 66.2244 88.856 65.3984 88.856H12.457C10.8052 88.856 9.22078 89.5122 8.05273 90.6802C6.88473 91.8482 6.22857 93.4327 6.22852 95.0845H59.1699C59.9958 95.0845 60.7881 95.4127 61.3721 95.9966C61.9561 96.5806 62.2841 97.3729 62.2842 98.1987C62.2842 99.0247 61.9561 99.8168 61.3721 100.401C60.788 100.985 59.9958 101.313 59.1699 101.313H3.11426C2.28832 101.313 1.49614 100.985 0.912109 100.401C0.328125 99.8169 0 99.0246 0 98.1987V32.8003C0 29.4965 1.31232 26.3278 3.64844 23.9917C5.98455 21.6556 9.15329 20.3433 12.457 20.3433H65.3984Z" fill="#F3722C"/>
<path d="M47.8711 73.6503H50.597V76.8043C50.597 77.39 50.5069 77.9532 50.3267 78.4939C50.1615 79.0195 49.8911 79.4926 49.5157 79.9132C49.1552 80.3187 48.6896 80.6416 48.1189 80.8819C47.5632 81.1222 46.8949 81.2423 46.1139 81.2423C45.3029 81.2423 44.612 81.1222 44.0413 80.8819C43.4706 80.6416 42.9975 80.3187 42.622 79.9132C42.2616 79.5077 41.9988 79.0346 41.8335 78.4939C41.6683 77.9532 41.5857 77.3825 41.5857 76.7817V66.8693H44.4693V69.8656H50.597V71.9382H44.4693V76.4889C44.4693 77.1948 44.597 77.7429 44.8523 78.1334C45.1227 78.5089 45.5582 78.6966 46.159 78.6966C46.7447 78.6966 47.1727 78.5089 47.4431 78.1334C47.7284 77.758 47.8711 77.2248 47.8711 76.5339V73.6503ZM59.0479 80.9495L56.6149 75.9707L55.1956 77.4351V80.9495H52.2444V65.8105H55.1956V74.0784L58.8452 69.8656H62.4272L58.71 73.9432L62.3371 80.9495H59.0479Z" fill="white"/>
</svg>
