<svg width="800" height="640" viewBox="0 0 800 640" fill="none" xmlns="http://www.w3.org/2000/svg">
  <rect width="800" height="640" rx="40" fill="#FFF8EF"/>
  <circle cx="650" cy="160" r="118" fill="#F9C74F" fill-opacity="0.28"/>
  <circle cx="180" cy="500" r="136" fill="#43AA8B" fill-opacity="0.22"/>
  <rect x="124" y="138" width="552" height="352" rx="28" fill="white" stroke="#E7E7E7" stroke-width="2"/>
  <rect x="154" y="176" width="234" height="250" rx="22" fill="#FDEBD7"/>
  <rect x="410" y="176" width="216" height="118" rx="20" fill="#EAF7F2"/>
  <rect x="410" y="312" width="216" height="114" rx="20" fill="#FDF2E8"/>
  <rect x="178" y="212" width="78" height="14" rx="7" fill="#F3722C"/>
  <rect x="178" y="240" width="132" height="12" rx="6" fill="#577590" fill-opacity="0.7"/>
  <rect x="178" y="264" width="108" height="12" rx="6" fill="#577590" fill-opacity="0.55"/>
  <rect x="178" y="296" width="162" height="14" rx="7" fill="#43AA8B" fill-opacity="0.75"/>
  <rect x="178" y="326" width="122" height="14" rx="7" fill="#F8961E" fill-opacity="0.8"/>
  <rect x="434" y="208" width="92" height="18" rx="9" fill="#577590"/>
  <rect x="434" y="236" width="132" height="12" rx="6" fill="#577590" fill-opacity="0.55"/>
  <rect x="434" y="260" width="96" height="12" rx="6" fill="#577590" fill-opacity="0.4"/>
  <rect x="434" y="348" width="120" height="16" rx="8" fill="#F3722C"/>
  <rect x="434" y="378" width="96" height="12" rx="6" fill="#577590" fill-opacity="0.55"/>
  <rect x="548" y="340" width="58" height="58" rx="16" fill="#F9C74F"/>
  <path d="M577 358L589 370L610 346" stroke="white" stroke-width="10" stroke-linecap="round" stroke-linejoin="round"/>
  <circle cx="608" cy="130" r="24" fill="#F94144"/>
  <path d="M588 128L603 144L629 115" stroke="white" stroke-width="8" stroke-linecap="round" stroke-linejoin="round"/>
  <circle cx="240" cy="116" r="26" fill="#F9C74F"/>
  <path d="M228 116L237 126L255 106" stroke="white" stroke-width="8" stroke-linecap="round" stroke-linejoin="round"/>
  <path d="M240 438C267 395 307 370 340 350" stroke="#43AA8B" stroke-width="10" stroke-linecap="round"/>
  <path d="M320 354L349 339L338 367" stroke="#F3722C" stroke-width="10" stroke-linecap="round" stroke-linejoin="round"/>
</svg>
