<svg width="198" height="234" viewBox="0 0 198 234" fill="none" xmlns="http://www.w3.org/2000/svg">
<path d="M188.511 0C190.892 0 193.175 0.946422 194.858 2.62988C196.542 4.31334 197.487 6.5968 197.487 8.97754V188.512C197.487 190.892 196.542 193.176 194.858 194.859C193.175 196.543 190.891 197.488 188.511 197.488H35.9072C31.1457 197.488 26.5788 199.38 23.2119 202.747C19.8452 206.114 17.9532 210.68 17.9531 215.441H170.558C172.938 215.441 175.222 216.387 176.905 218.07C178.589 219.754 179.534 222.037 179.534 224.418C179.534 226.799 178.589 229.082 176.905 230.766C175.222 232.449 172.938 233.395 170.558 233.395H8.97656C6.59584 233.394 4.31233 232.449 2.62891 230.766C0.9456 229.082 0 226.799 0 224.418V35.9072C4.28851e-06 26.3843 3.78295 17.2514 10.5166 10.5176C17.2504 3.78373 26.3841 0 35.9072 0H188.511Z" fill="#F3722C"/>
<path d="M137.988 153.242H145.845V162.333C145.845 164.022 145.586 165.645 145.066 167.204C144.59 168.719 143.811 170.083 142.728 171.295C141.689 172.464 140.347 173.395 138.702 174.087C137.101 174.78 135.174 175.126 132.923 175.126C130.585 175.126 128.594 174.78 126.949 174.087C125.304 173.395 123.94 172.464 122.858 171.295C121.819 170.126 121.061 168.762 120.585 167.204C120.109 165.645 119.871 164 119.871 162.269V133.696H128.182V142.333H145.845V148.307H128.182V161.424C128.182 163.459 128.55 165.039 129.286 166.165C130.066 167.247 131.321 167.788 133.053 167.788C134.741 167.788 135.975 167.247 136.754 166.165C137.577 165.083 137.988 163.546 137.988 161.554V153.242ZM170.205 174.282L163.192 159.931L159.101 164.152V174.282H150.594V130.644H159.101V154.476L169.621 142.333H179.946L169.231 154.086L179.686 174.282H170.205Z" fill="white"/>
</svg>
